<svg id="Bear" xmlns="http://www.w3.org/2000/svg" width="407.116" height="595.319" viewBox="0 0 407.116 595.319">
  <path id="Path_5" data-name="Path 5" d="M253.441,235.487a121.29,121.29,0,0,0-7.531,45.1c.745,25.064,17.085,57.152,29.947,71,0,0-21.611,21.013-34.292,47.18s-14.288,154.162-14.288,154.162l40.989,104.451a220.175,220.175,0,0,0,28.368-8.155c16.015-5.715,21.165-7.591,32.384-6.668s33.668,3.065,58.344,1.547c24.678-1.488,42.717-5.327,50.724-5.179s41.255,10.359,59.98,12.8S526.82,485.085,526.82,485.085L512.563,405.1s-5.538-22.5-28.7-49.233c0,0,23.01-17.8,28.962-52.807s-10.208-76.233-10.208-76.233S289.133,199.74,253.441,235.487Zm0,0" transform="translate(-172.644 -76.518)" fill="#49b9bb" fill-rule="evenodd"/>
  <path id="Path_6" data-name="Path 6" d="M205.227,417.91c-2.738,2.769,1.337,61.051,4.345,90.905,2.976,29.859,7.233,89.75,9.078,96.269,1.876,6.52,77.959,35.541,82.185,33.813s70.877-20.777,74.478-19.5c3.573,1.31,58.048,18.248,62.811,17.237S520.457,607.7,520.457,607.7s35.662-186.994,32.18-189.615c-3.485-2.588-76.829,20.57-84.271,21.046s-74.953-20.9-82.277-20.094-80.4,18.4-87.187,18.872C292.116,438.418,207.933,415.141,205.227,417.91Zm0,0" transform="translate(-168.989 -108.466)" fill="#e1e1e1" fill-rule="evenodd"/>
  <path id="Path_7" data-name="Path 7" d="M485.551,452.677a1.6,1.6,0,1,1,3.153.539s-27.415,162.17-30.867,179.521a1.594,1.594,0,1,1-3.127-.624C458.136,614.758,485.551,452.677,485.551,452.677Zm-86.058-18.692a1.595,1.595,0,0,1,3.186.148s-6.191,154.252-6.49,179.407A1.593,1.593,0,0,1,393,613.51C393.3,588.326,399.493,433.985,399.493,433.985Zm-83.824,17.444a1.56,1.56,0,0,1,1.609-1.58,1.576,1.576,0,0,1,1.577,1.609s-.388,170.384,1.1,180.713a1.594,1.594,0,1,1-3.153.477C315.314,622.26,315.669,451.429,315.669,451.429Zm0,0" transform="translate(-186.709 -110.82)" fill="#faab36" fill-rule="evenodd"/>
  <path id="Path_8" data-name="Path 8" d="M536.722,475.026c6.668-.565,12.057,3.928,13.365,5.327,4.5,4.854,5.3,11.85,5.895,18.219,1.219,13.751.06,29.885-8.453,41.465-7,9.525-19.677,17.8-31.284,10.182-19.648-12.862-18.754-39.085-7.772-56.738C515.2,482.675,526.691,475.889,536.722,475.026Zm-336.486.446c14.379-8.007,26.672,6.578,31.258,18.99,7.439,20.153,3.422,48.462-18.4,57.9-11.965,5.179-21.461-1.37-27-12.054a53.608,53.608,0,0,1-.535-48.255C187.795,487.677,192.586,479.759,200.236,475.472Zm0,0" transform="translate(-165.131 -117.302)" fill="#49b9bb" fill-rule="evenodd"/>
  <path id="Path_9" data-name="Path 9" d="M522.937,607.024c7.767-.446,16.28,1.011,20.183,2.559a42.233,42.233,0,0,1,26.222,36.733c1.163,25.092-11.518,49.055-29.113,66.381-7.321,7.232-19.555,12.95-29.855,14.914-25.391,4.851-44.024-15.033-45.84-38.608-2.086-27.445,14.228-61.26,37.475-75.7C507.665,609.822,513.767,607.53,522.937,607.024ZM206.722,613.3c9.406-.119,15.775,1.728,21.73,4.821,24.7,12.862,43.787,45.693,43.639,73.406-.122,23.815-17.683,45.157-43.877,42.089-10.628-1.248-23.486-6.131-31.465-12.858-19.17-16.163-33.815-39.35-34.439-64.683a42.514,42.514,0,0,1,24.051-38.785C190.2,615.478,198.774,613.392,206.722,613.3Zm0,0" transform="translate(-162.3 -138.596)" fill="#49b9bb" fill-rule="evenodd"/>
  <path id="Path_10" data-name="Path 10" d="M507.641,651.938c5.327-1.935,12.621-.923,15.509-.119,9.436,2.71,18.573,9.525,21.552,19.378,5.117,16.909-7.085,38.313-22.8,44.533a39.893,39.893,0,0,1-13.365,2.887c-18.277.505-27.8-13.634-26.284-30.959C483.649,672.18,492.937,657.3,507.641,651.938Zm-277.19,5.242c15.361,4.345,25.867,18.632,28.4,34.112,2.828,17.325-5.862,32.206-24.5,32.981a40.252,40.252,0,0,1-13.811-1.964c-16.432-5.15-30.424-25.779-26.433-43.134,2.322-10.119,11.131-17.621,20.567-21.013C217.5,657.147,224.855,655.6,230.452,657.18Zm308.891-12.74c-2.917,2.828-7.978,2.946-10.148.594-3.751-4.02-2.057-9.14-.093-12.352,2.414-3.9,7.265-5.656,11.67-1.429C543.54,633.871,542.945,640.926,539.342,644.44ZM197.617,651.88c-3.928-3.275-5.028-10.33-2.411-13.158,4.2-4.552,9.259-3.153,12,.6,2.26,3.094,4.316,8.126.8,12.441C205.953,654.261,200.8,654.53,197.617,651.88Zm319.637-13.1c-1.754,3.242-6.25,4.94-8.868,3.747-4.525-2.052-4.555-6.785-3.75-10.03.981-3.958,4.792-6.937,10-4.91C517.882,628.839,519.458,634.764,517.254,638.784Zm-297.579,5.834c-2.5-3.869-1.339-9.942,1.876-11.43,5.15-2.411,9.229.325,10.536,4.227,1.075,3.213,1.37,7.946-3.094,10.359C226.4,649.144,221.7,647.745,219.675,644.618Zm337.14,12.592c-2.352,2.8-7.085,3.571-9.436,1.876-4.017-2.95-3.123-7.56-1.694-10.6,1.754-3.662,6.072-5.833,10.772-2.8C559.377,647.593,559.765,653.725,556.815,657.209Zm-376.076,8.75c-3.242-3.3-3.3-9.466-.443-11.578,4.552-3.4,9.108-1.55,11.16,2.023,1.7,2.917,2.917,7.531-.953,10.747C188.241,669.056,183.36,668.639,180.739,665.96Zm0,0" transform="translate(-164.835 -141.779)" fill="#faab36" fill-rule="evenodd"/>
  <path id="Path_11" data-name="Path 11" d="M486.783,666.111a1.585,1.585,0,0,1,2.053-.923,1.557,1.557,0,0,1,.922,2.052s-9.761,25.57.27,47.834a1.6,1.6,0,1,1-2.917,1.311C476.6,692.99,486.783,666.111,486.783,666.111Zm-201.79,8.274a1.6,1.6,0,0,1,2.917-1.311s12.028,27.447-.8,50.9a1.6,1.6,0,1,1-2.8-1.547C296.423,700.311,284.993,674.385,284.993,674.385Zm0,0" transform="translate(-181.692 -147.852)" fill="#faab36" fill-rule="evenodd"/>
  <path id="Path_12" data-name="Path 12" d="M246.916,205.619c-2.086-.236-4.2-4.91-5.062-6.43-3.958-6.9-7.143-14.852-7.143-22.919a25.979,25.979,0,0,1,2.5-11.075c3.6-7.5,10.717-13.958,18.96-15.775,14.557-3.186,31.7,7.472,35.839,21.641C295.2,181.985,246.916,205.619,246.916,205.619ZM475.7,168.292c.119-2.174,5.626-5.627,7.085-6.726,8.513-6.461,20.005-11.046,30.689-7.83a27.331,27.331,0,0,1,16.044,12.441c11.193,19.5-6.221,44.533-24.974,50.278C494.129,219.67,475.7,168.292,475.7,168.292Zm0,0" transform="translate(-173.827 -65.67)" fill="#49b9bb" fill-rule="evenodd"/>
  <path id="Path_13" data-name="Path 13" d="M403.1,255.2c8.543,5.833,14.737,14.585,18.455,24.051,5.179,13.1,9.676,34.588,2.709,48.015-10.059,19.348-38.785,19.2-57.063,14.316-6.637-1.787-13.841-3.987-18.573-9.285-8.066-9.023-7.711-23.844-5.984-34.979a75,75,0,0,1,10.152-27.056c5.475-8.99,12.619-15.926,22.771-18.873a29.707,29.707,0,0,1,11.312-1.192C394.795,251,400.956,253.711,403.1,255.2Zm85.611-78.081c.388.181.624-.594.982-.86a37.067,37.067,0,0,1,3.81-2.533c4.05-2.44,8.723-5.031,13.575-4.851,9.883.328,16.461,10.477,13.87,19.8-1.576,5.685-6.428,10.359-10.806,14.051C505.764,206.38,488.709,177.119,488.709,177.119ZM259.293,197.748c-2.2-.922-3.57-3.958-4.614-5.892-4.046-7.354-4.227-16.344,3.067-21.611,9.5-6.907,18.99.387,25.153,7.767C286.83,182.745,259.293,197.748,259.293,197.748Zm0,0" transform="translate(-176.562 -68.634)" fill="#faab36" fill-rule="evenodd"/>
  <path id="Path_14" data-name="Path 14" d="M454.568,266.906a9.5,9.5,0,1,1-9.5,9.5A9.5,9.5,0,0,1,454.568,266.906ZM339.19,265.684a9.5,9.5,0,1,1-9.5,9.5A9.5,9.5,0,0,1,339.19,265.684Zm59.237,59.3c1.787,1.816,9.466,8.6,19.648,3.6a1.6,1.6,0,0,1,1.429,2.861c-11.046,5.445-19.588-.8-22.653-3.573-10.033,9.436-21.345,3.186-21.345,3.186a1.6,1.6,0,0,1,1.55-2.8,15.581,15.581,0,0,0,18.216-3.275l.269-12.888a1.594,1.594,0,1,1,3.186.088Zm0,0" transform="translate(-188.948 -84.269)" fill="#005f60" fill-rule="evenodd"/>
  <path id="Path_15" data-name="Path 15" d="M417.416,301.282a26.844,26.844,0,0,0-10-2.112c-4.7-.151-9.912.148-13.87,2.946-5.508,3.869-6.966,12.5-.535,16.284,5.15,3.034,12.053,2.946,17.828,2.5,4.108-.3,8.217-1.311,11.045-4.5C426.557,311.194,423.193,303.873,417.416,301.282Zm0,0" transform="translate(-198.352 -89.595)" fill="#005f60" fill-rule="evenodd"/>
  <path id="Path_16" data-name="Path 16" d="M281.337,144.237c-2.709,3.245-8.9,9.823-9.942,10.924a549.388,549.388,0,0,0-36.256,41.912c-1.905,2.411-12.441,16.372-9.853,17.354,1.905.716,7.948-.742,11.818-1.159,11.282-1.192,22.564-2.532,33.9-3.334a709.044,709.044,0,0,1,122.373,2.112c36.763,3.78,73.344,6.7,110.257,8.484,8.779.417,17.532,1.281,26.315,1.846,1.577.089,7.2,1.13,8.155-.893,1.159-2.529-12.235-17.739-13.992-20.183-8.155-11.341-15.6-23.188-23.9-34.44-3.718-5.028-8.008-9.554-11.666-14.527a48.081,48.081,0,0,1-5.179-8.6c-1.045-2.322-2.027-4.7-2.979-7.173C472.263,115.094,468.1,88.6,454.7,71.28c-8.753-11.311-24.44-7.889-37.238-11.344-12.652-3.422-26.643-7.827-39.919-9.255-15.033-1.639-24.468-.657-38.785,3.245-7.561,2.053-18.872,5.327-24.768,10.983-5.655,5.419-8.9,13.781-11.042,20.954-3.99,13.249-9.764,30.276-15.479,44.921-1.635,4.2-3.274,8.184-4.88,11.817A15.3,15.3,0,0,1,281.337,144.237Zm0,0" transform="translate(-172.262 -49.921)" fill="#fd5901" fill-rule="evenodd"/>
  <path id="Path_17" data-name="Path 17" d="M499.237,166.438c-6.4-1.606-12.741-3.182-19.259-4.4-22.653-4.256-46.051-5-68.97-6.726-35.991-2.68-71.741-1.162-107.639,2.112-3.751.329-7.561.657-11.342.923a11.356,11.356,0,0,0,1.222-1.666c1.577-3.662,3.245-7.649,4.881-11.817l1.816-.27c13.93-1.934,27.773-3.751,41.794-4.821,43.666-3.363,86.8.358,129.754,8.126,5.474.982,12.74,1.488,19.585,2.8.922,2.47,1.9,4.851,2.979,7.173A49.6,49.6,0,0,0,499.237,166.438Zm0,0" transform="translate(-182.952 -64.026)" fill="#005f60" fill-rule="evenodd"/>
  <path id="Path_18" data-name="Path 18" d="M520.71,241.144a1.6,1.6,0,1,1,.269-3.186c1.994.151,3.987.329,5.951.477a1.6,1.6,0,0,1-.266,3.186C524.7,241.473,522.7,241.325,520.71,241.144Zm-23.816-1.994a1.6,1.6,0,0,1,.27-3.186c4.049.358,8.007.687,11.906,1.011a1.6,1.6,0,0,1-.267,3.186C504.9,239.834,500.944,239.509,496.894,239.15Zm-23.812-2.115a1.6,1.6,0,1,1,.269-3.182c4.047.354,8.008.712,11.907,1.07a1.6,1.6,0,0,1-.27,3.186C481.089,237.751,477.132,237.393,473.082,237.036ZM449.3,234.894a1.6,1.6,0,1,1,.266-3.186c4.021.358,8.008.716,11.906,1.07a1.6,1.6,0,0,1-.266,3.186C457.307,235.606,453.346,235.252,449.3,234.894Zm-23.786-2.053a1.6,1.6,0,0,1-1.459-1.727,1.622,1.622,0,0,1,1.728-1.459,8.226,8.226,0,0,0,.861.06c3.721.328,7.413.624,11.045.952a1.6,1.6,0,0,1-.269,3.187c-3.629-.329-7.291-.628-11.042-.953C426.08,232.871,425.813,232.871,425.515,232.841ZM401.7,230.756a1.606,1.606,0,0,1-1.462-1.728,1.626,1.626,0,0,1,1.728-1.458c3.928.329,7.919.686,11.906,1.044a1.615,1.615,0,0,1,1.458,1.724,1.635,1.635,0,0,1-1.724,1.458C409.618,231.442,405.661,231.114,401.7,230.756Zm-23.786-1.876a1.6,1.6,0,0,1,.21-3.186c3.928.27,7.916.6,11.936.923a1.6,1.6,0,0,1-.27,3.186C385.835,229.475,381.845,229.15,377.917,228.88Zm-23.782-1.429a1.595,1.595,0,1,1,.148-3.186q5.936.271,11.965.627a1.595,1.595,0,1,1-.208,3.182C362.02,227.839,358.063,227.632,354.134,227.451Zm-23.815-.535a1.593,1.593,0,0,1-.029-3.187c3.958,0,7.948.03,12,.151a1.592,1.592,0,1,1-.092,3.182C338.209,226.946,334.248,226.917,330.32,226.917Zm-23.812.683a1.575,1.575,0,0,1-1.669-1.518,1.557,1.557,0,0,1,1.518-1.665c4.08-.21,8.1-.388,11.968-.506a1.574,1.574,0,0,1,1.636,1.547,1.591,1.591,0,0,1-1.547,1.635C314.575,227.215,310.554,227.393,306.508,227.6Zm-23.786,1.55a1.583,1.583,0,0,1-.237-3.156c3.9-.3,7.886-.594,11.936-.863a1.6,1.6,0,1,1,.207,3.186C290.612,228.552,286.62,228.851,282.722,229.15Zm-23.782,2.023a1.585,1.585,0,0,1-.3-3.156c3.6-.325,7.62-.713,11.906-1.07a1.618,1.618,0,0,1,1.728,1.458,1.6,1.6,0,0,1-1.458,1.728C266.56,230.46,262.54,230.844,258.94,231.173Zm-17.8,1.787a1.588,1.588,0,1,1-.358-3.156s2.174-.236,5.955-.624a1.6,1.6,0,0,1,.329,3.186C243.313,232.72,241.139,232.96,241.139,232.96Zm0,0" transform="translate(-174.569 -77.59)" fill="#005f60" fill-rule="evenodd"/>
</svg>
