<svg id="Logo" xmlns="http://www.w3.org/2000/svg" xmlns:xlink="http://www.w3.org/1999/xlink" width="183.135" height="39.966" viewBox="0 0 183.135 39.966">
  <defs>
    <clipPath id="clip-path">
      <path id="Path_20" data-name="Path 20" d="M48,333H85.872v31.251H48Zm0,0" transform="translate(-48 -333)"/>
    </clipPath>
    <clipPath id="clip-path-2">
      <path id="Path_24" data-name="Path 24" d="M47.313,332H85.363v31.511H47.313Zm0,0" transform="translate(-47.313 -332)" fill="#008083"/>
    </clipPath>
    <clipPath id="clip-path-3">
      <rect id="Rectangle_4" data-name="Rectangle 4" width="38.246" height="31.742" fill="#008083"/>
    </clipPath>
    <clipPath id="clip-path-4">
      <path id="Path_23" data-name="Path 23" d="M1,1H38.872V32.251H1ZM1,1" transform="translate(-1 -1)" fill="#008083"/>
    </clipPath>
    <clipPath id="clip-path-5">
      <path id="Path_22" data-name="Path 22" d="M4.158,30.741a4.692,4.692,0,0,1-2.936-3,4.17,4.17,0,0,1,.724-3.616l.022-.032.025-.028c1.638-1.9,5.118-2.858,10.341-2.858a72.224,72.224,0,0,1,12.08,1.215L28.872,5.751l5.715-4.544,3.594-.13a.741.741,0,0,1,.756.878C38.25,5.6,35.7,19.513,34.42,31.5a.941.941,0,0,1-.947.834C28.923,32.3,7.476,32.065,4.158,30.741Zm0,0" transform="translate(-1.075 -1.076)" fill="#008083"/>
    </clipPath>
    <clipPath id="clip-path-6">
      <rect id="Rectangle_5" data-name="Rectangle 5" width="15.611" height="8.846" fill="#d76e00"/>
    </clipPath>
    <clipPath id="clip-path-7">
      <path id="Path_30" data-name="Path 30" d="M.32,1H15.806V9.482H.32Zm0,0" transform="translate(-0.32 -1)" fill="#d76e00"/>
    </clipPath>
    <clipPath id="clip-path-8">
      <path id="Path_29" data-name="Path 29" d="M15.955,3.83c-.184,1.324-.414,2.858-.619,4.345-.005.039-.012.075-.019.112a1.677,1.677,0,0,1-1.847,1.319A70.951,70.951,0,0,0,2.4,9.27,1.678,1.678,0,0,1,.678,7.28,34.694,34.694,0,0,1,1.921,2.562,1.685,1.685,0,0,1,3.358,1.45a46.489,46.489,0,0,1,11.188.491A1.678,1.678,0,0,1,15.955,3.83Zm0,0" transform="translate(-0.648 -1.299)" fill="#d76e00"/>
    </clipPath>
    <clipPath id="clip-path-9">
      <path id="Path_35" data-name="Path 35" d="M47.313,304h31.92v33.563H47.313Zm0,0" transform="translate(-47.313 -304)" fill="#008083"/>
    </clipPath>
    <clipPath id="clip-path-10">
      <rect id="Rectangle_6" data-name="Rectangle 6" width="32.002" height="33.563" fill="#008083"/>
    </clipPath>
    <clipPath id="clip-path-11">
      <path id="Path_34" data-name="Path 34" d="M1,1H32.6V34.1H1ZM1,1" transform="translate(-1 -1)" fill="#008083"/>
    </clipPath>
    <clipPath id="clip-path-12">
      <path id="Path_33" data-name="Path 33" d="M32.586,29.5c-.256,1.624-.463,2.973-.6,3.9a.741.741,0,0,1-.825.627c-22.844-2.793-29.135-2.649-29.1.088,0,0-.649-.645-.946-.444,0,0,5.6-30.354,9.571-32.464.085-.045.174-.09.264-.133C9.608,6.563,5.158,25.8,8.484,27.043,12.275,28.461,24.792,30.449,32.586,29.5Zm0,0" transform="translate(-1.117 -1.078)" fill="#008083"/>
    </clipPath>
    <clipPath id="clip-path-13">
      <rect id="Rectangle_7" data-name="Rectangle 7" width="14.57" height="8.326" fill="#d76e00"/>
    </clipPath>
    <clipPath id="clip-path-14">
      <path id="Path_38" data-name="Path 38" d="M.039,1H14.526V9.045H.039Zm0,0" transform="translate(-0.039 -1)" fill="#d76e00"/>
    </clipPath>
    <clipPath id="clip-path-15">
      <path id="Path_37" data-name="Path 37" d="M14.559,7.9a1.648,1.648,0,0,1-1.815,1.3A69.66,69.66,0,0,0,1.856,8.865,1.651,1.651,0,0,1,.165,6.909,34.519,34.519,0,0,1,1.388,2.269,1.635,1.635,0,0,1,2.312,1.3c-.1,1.509.144,3.949,2.612,4.846A47.082,47.082,0,0,0,14.559,7.9Zm0,0" transform="translate(-0.136 -1.297)" fill="#d76e00"/>
    </clipPath>
  </defs>
  <g id="Group_15" data-name="Group 15" transform="translate(0.179 8.716)" clip-path="url(#clip-path)">
    <path id="Path_19" data-name="Path 19" d="M51.158,362.741a4.692,4.692,0,0,1-2.936-3,4.17,4.17,0,0,1,.724-3.616l.022-.031.025-.029c1.638-1.9,5.118-2.858,10.341-2.858a72.218,72.218,0,0,1,12.08,1.214l4.458-16.673,5.715-4.544,3.594-.13a.741.741,0,0,1,.756.878C85.25,337.6,82.7,351.513,81.42,363.5a.941.941,0,0,1-.947.834C75.923,364.3,54.476,364.065,51.158,362.741Zm0,0" transform="translate(-48.055 -333.056)" fill="#249ea0"/>
  </g>
  <g id="Group_21" data-name="Group 21" transform="translate(0 8.456)" clip-path="url(#clip-path-2)">
    <g id="Group_20" data-name="Group 20" transform="translate(-0.081 0)">
      <g id="Group_19" data-name="Group 19">
        <g id="Group_18" data-name="Group 18" clip-path="url(#clip-path-3)">
          <g id="Group_17" data-name="Group 17" transform="translate(0.26 0.26)" clip-path="url(#clip-path-4)">
            <g id="Group_16" data-name="Group 16" transform="translate(0.019 0.02)" clip-path="url(#clip-path-5)">
              <path id="Path_21" data-name="Path 21" d="M.762,1.012V32.259H38.7V1.012Zm0,0" transform="translate(-0.843 -1.028)" fill="#008083"/>
            </g>
          </g>
        </g>
      </g>
    </g>
  </g>
  <path id="Path_25" data-name="Path 25" d="M87.264,322.666c-1.868,8.869-3.05,18.79-4.445,28.644H82.6c-2.348.008-22.835.049-27.665-.954a4.269,4.269,0,0,1-.7-.193c-2.538-1.022-3.12-3.354-1.8-5.159a5.793,5.793,0,0,1,2.375-1.531c5.044-1.914,14.806-.681,20.628.486l-.39-.943L78.3,330.872l1.176-4.4,6.319-9.193Zm0,0" transform="translate(-50.597 -312.652)" fill="#faab36"/>
  <path id="Path_26" data-name="Path 26" d="M162.756,322.666c-1.868,8.869-3.05,18.79-4.445,28.644h-.219a95.969,95.969,0,0,1-3.114-10.609s-.572-4.657-1.184-9.83l1.176-4.4,6.318-9.193Zm0,0" transform="translate(-126.089 -312.652)" fill="#f78104"/>
  <path id="Path_27" data-name="Path 27" d="M84.1,302.769c-.772,3.544-3.237,18.5-4.515,26.608-.255,1.624-.463,2.973-.6,3.9a.741.741,0,0,1-.825.627c-22.844-2.793-29.135-2.649-29.1.088,0,0-.649-.645-.946-.444,0,0,5.6-30.354,9.571-32.464.085-.045.173-.091.264-.133,5.959-2.849,22.578-.872,25.547.581A1.111,1.111,0,0,1,84.1,302.769Zm0,0" transform="translate(-47.911 -299.5)" fill="#249ea0"/>
  <g id="Group_26" data-name="Group 26" transform="translate(12.147 6.374)">
    <g id="Group_25" data-name="Group 25" transform="translate(0 0)">
      <g id="Group_24" data-name="Group 24" clip-path="url(#clip-path-6)">
        <g id="Group_23" data-name="Group 23" transform="translate(0.083 0.26)" clip-path="url(#clip-path-7)">
          <g id="Group_22" data-name="Group 22" transform="translate(0.085 0.078)" clip-path="url(#clip-path-8)">
            <path id="Path_28" data-name="Path 28" d="M.32.961V9.453H15.806V.961Zm0,0" transform="translate(-0.405 -1.049)" fill="#d76e00"/>
          </g>
        </g>
      </g>
    </g>
  </g>
  <path id="Path_31" data-name="Path 31" d="M110.19,326.75c-.181,1.3-.405,2.81-.608,4.273,0,.038-.011.073-.019.11a1.647,1.647,0,0,1-1.815,1.3,69.683,69.683,0,0,0-10.89-.328,1.651,1.651,0,0,1-1.689-1.956,34.214,34.214,0,0,1,1.223-4.639,1.636,1.636,0,0,1,.924-.973,1.656,1.656,0,0,1,.489-.121,45.7,45.7,0,0,1,11,.483A1.648,1.648,0,0,1,110.19,326.75Zm0,0" transform="translate(-82.696 -317.82)" fill="#f78104"/>
  <g id="Group_32" data-name="Group 32" transform="translate(0 1.171)" clip-path="url(#clip-path-9)">
    <g id="Group_31" data-name="Group 31" transform="translate(-0.081)">
      <g id="Group_30" data-name="Group 30">
        <g id="Group_29" data-name="Group 29" clip-path="url(#clip-path-10)">
          <g id="Group_28" data-name="Group 28" transform="translate(0.26 0.26)" clip-path="url(#clip-path-11)">
            <g id="Group_27" data-name="Group 27" transform="translate(0.03 0.02)" clip-path="url(#clip-path-12)">
              <path id="Path_32" data-name="Path 32" d="M1.117,1.078V34.119H32.586V1.078Zm0,0" transform="translate(-1.117 -1.078)" fill="#008083"/>
            </g>
          </g>
        </g>
      </g>
    </g>
  </g>
  <g id="Group_37" data-name="Group 37" transform="translate(12.407 6.374)">
    <g id="Group_36" data-name="Group 36" transform="translate(0 0)">
      <g id="Group_35" data-name="Group 35" clip-path="url(#clip-path-13)">
        <g id="Group_34" data-name="Group 34" transform="translate(0.01 0.26)" clip-path="url(#clip-path-14)">
          <g id="Group_33" data-name="Group 33" transform="translate(0.025 0.077)" clip-path="url(#clip-path-15)">
            <path id="Path_36" data-name="Path 36" d="M.039,1.3V9.265H14.488V1.3Zm0,0" transform="translate(-0.064 -1.297)" fill="#d76e00"/>
          </g>
        </g>
      </g>
    </g>
  </g>
  <g id="Group_40" data-name="Group 40" transform="translate(48.177 9.308)">
    <g id="Group_39" data-name="Group 39" transform="translate(0 0)">
      <g id="Group_38" data-name="Group 38" transform="translate(0 0)">
        <path id="Path_39" data-name="Path 39" d="M11.734-102.719h9.927a15.95,15.95,0,0,1,5.878,1.049,14.357,14.357,0,0,1,4.6,2.846,12.392,12.392,0,0,1,2.98,4.236,13.122,13.122,0,0,1,1.049,5.232,13.136,13.136,0,0,1-1.049,5.232,12.382,12.382,0,0,1-2.98,4.236,14.429,14.429,0,0,1-4.6,2.846,15.95,15.95,0,0,1-5.878,1.049H11.734Zm9.927,20.233A7.73,7.73,0,0,0,24.524-83a6.677,6.677,0,0,0,2.236-1.431,6.439,6.439,0,0,0,1.451-2.179,7.19,7.19,0,0,0,.516-2.748,7.194,7.194,0,0,0-.516-2.748,6.413,6.413,0,0,0-1.451-2.175,6.671,6.671,0,0,0-2.236-1.435,7.689,7.689,0,0,0-2.862-.516H18.991v13.745Zm0,0" transform="translate(-11.734 102.719)" fill="#249ea0"/>
      </g>
    </g>
  </g>
  <g id="Group_43" data-name="Group 43" transform="translate(75.476 16.943)">
    <g id="Group_42" data-name="Group 42" transform="translate(0 0)">
      <g id="Group_41" data-name="Group 41" transform="translate(0 0)">
        <path id="Path_40" data-name="Path 40" d="M15.45-53.9a10.856,10.856,0,0,1-4.106-.764,10.01,10.01,0,0,1-3.264-2.1,9.9,9.9,0,0,1-2.159-3.094,9.2,9.2,0,0,1-.781-3.781A9.456,9.456,0,0,1,5.9-67.4a9.7,9.7,0,0,1,2.118-3.11,10.014,10.014,0,0,1,3.171-2.1,9.885,9.885,0,0,1,3.878-.764,9.954,9.954,0,0,1,3.854.744,9.554,9.554,0,0,1,3.094,2.024,9.343,9.343,0,0,1,2.041,3.037,9.457,9.457,0,0,1,.748,3.74,7.742,7.742,0,0,1-.041.8c-.024.255-.051.484-.077.687q-.037.346-.073.614H11.82a2.556,2.556,0,0,0,.382.9,3.312,3.312,0,0,0,.858.878,4.818,4.818,0,0,0,1.3.646,5.215,5.215,0,0,0,1.659.248,6.352,6.352,0,0,0,1.911-.264,9.822,9.822,0,0,0,1.451-.577,6.189,6.189,0,0,0,1.22-.878l2.484,4.2A9.585,9.585,0,0,1,21.06-55.24a11.964,11.964,0,0,1-2.407.939A11.816,11.816,0,0,1,15.45-53.9ZM18.312-65.74a3.847,3.847,0,0,0-1.126-1.736,3.035,3.035,0,0,0-2.118-.744,3.037,3.037,0,0,0-2.122.744A3.839,3.839,0,0,0,11.82-65.74Zm0,0" transform="translate(-5.141 73.375)" fill="#249ea0"/>
      </g>
    </g>
  </g>
  <g id="Group_46" data-name="Group 46" transform="translate(96.663 16.943)">
    <g id="Group_45" data-name="Group 45" transform="translate(0 0)">
      <g id="Group_44" data-name="Group 44" transform="translate(0 0)">
        <path id="Path_41" data-name="Path 41" d="M10.059-53.9a11.323,11.323,0,0,1-3.61-.533,14.622,14.622,0,0,1-2.691-1.187,10.282,10.282,0,0,1-2.289-1.716L4.9-60.968a4.634,4.634,0,0,0,1.033.955,5.13,5.13,0,0,0,1.2.671,4.208,4.208,0,0,0,1.585.285,1.984,1.984,0,0,0,1.2-.264.855.855,0,0,0,.325-.691q0-.418-.573-.744a13.333,13.333,0,0,0-1.451-.687q-.878-.361-1.89-.821a8.952,8.952,0,0,1-1.89-1.163,5.946,5.946,0,0,1-1.451-1.72,5.031,5.031,0,0,1-.569-2.5,4.936,4.936,0,0,1,.5-2.175,5.4,5.4,0,0,1,1.468-1.833,7.16,7.16,0,0,1,2.386-1.26,10.655,10.655,0,0,1,3.285-.459,11.017,11.017,0,0,1,3.321.459,14,14,0,0,1,2.443.992,11.942,11.942,0,0,1,2.061,1.411l-3.435,3.63a6.11,6.11,0,0,0-.764-.65,4.9,4.9,0,0,0-.858-.476,2.565,2.565,0,0,0-1.049-.211,1.963,1.963,0,0,0-1.2.268.843.843,0,0,0-.325.687q0,.419.573.744a12.952,12.952,0,0,0,1.451.687q.878.363,1.89.821a8.827,8.827,0,0,1,1.89,1.167A5.859,5.859,0,0,1,17.5-62.131a5.01,5.01,0,0,1,.573,2.5,4.974,4.974,0,0,1-.5,2.179,5.278,5.278,0,0,1-1.508,1.833,7.561,7.561,0,0,1-2.52,1.26A12.11,12.11,0,0,1,10.059-53.9Zm0,0" transform="translate(-1.469 73.375)" fill="#249ea0"/>
      </g>
    </g>
  </g>
  <g id="Group_49" data-name="Group 49" transform="translate(115.18 11.979)">
    <g id="Group_48" data-name="Group 48" transform="translate(0 0)">
      <g id="Group_47" data-name="Group 47" transform="translate(0 0)">
        <path id="Path_42" data-name="Path 42" d="M13.76-68.017a6.447,6.447,0,0,1-4.85-1.89,7.391,7.391,0,0,1-1.833-5.366v-5.342H4.406v-6.11H5.553a2.221,2.221,0,0,0,1.638-.646,2.232,2.232,0,0,0,.65-1.646v-3.435h5.728v5.728H17.2v6.11H13.569v4.2q0,2.29,2.1,2.289a4.363,4.363,0,0,0,1.378-.191,2.6,2.6,0,0,0,.533-.191v5.919c-.331.1-.7.2-1.106.3q-.537.113-1.244.191A13.633,13.633,0,0,1,13.76-68.017Zm0,0" transform="translate(-4.406 92.453)" fill="#249ea0"/>
      </g>
    </g>
  </g>
  <g id="Group_52" data-name="Group 52" transform="translate(132.169 8.544)">
    <g id="Group_51" data-name="Group 51" transform="translate(0 0)">
      <g id="Group_50" data-name="Group 50" transform="translate(0 0)">
        <path id="Path_43" data-name="Path 43" d="M8.456-96.875h6.492v18.708H8.456ZM11.7-98.786a3.58,3.58,0,0,1-2.618-.992,3.289,3.289,0,0,1-1.008-2.443,3.291,3.291,0,0,1,1.008-2.443,3.584,3.584,0,0,1,2.618-.992,3.581,3.581,0,0,1,2.614.992,3.287,3.287,0,0,1,1.012,2.443,3.285,3.285,0,0,1-1.012,2.443A3.577,3.577,0,0,1,11.7-98.786Zm0,0" transform="translate(-8.078 105.656)" fill="#249ea0"/>
      </g>
    </g>
  </g>
  <g id="Group_55" data-name="Group 55" transform="translate(143.813 16.943)">
    <g id="Group_54" data-name="Group 54" transform="translate(0 0)">
      <g id="Group_53" data-name="Group 53" transform="translate(0 0)">
        <path id="Path_44" data-name="Path 44" d="M8.813-72.993H15.3v2.671h.191a5.786,5.786,0,0,1,1.224-1.524A6.932,6.932,0,0,1,18.374-72.9a5.732,5.732,0,0,1,2.464-.48,6.613,6.613,0,0,1,2.655.537,5.921,5.921,0,0,1,2.118,1.524A7.367,7.367,0,0,1,27-68.871a9.9,9.9,0,0,1,.516,3.321v11.265H21.029v-9.927a3.134,3.134,0,0,0-.764-2.252,2.53,2.53,0,0,0-1.907-.8,2.894,2.894,0,0,0-2.179.919A3.484,3.484,0,0,0,15.3-63.83v9.545H8.813Zm0,0" transform="translate(-8.813 73.375)" fill="#249ea0"/>
      </g>
    </g>
  </g>
  <g id="Group_58" data-name="Group 58" transform="translate(165.573 16.943)">
    <g id="Group_57" data-name="Group 57" transform="translate(0 0)">
      <g id="Group_56" data-name="Group 56" transform="translate(0 0)">
        <path id="Path_45" data-name="Path 45" d="M9.591-53.9a6.333,6.333,0,0,1-2.39-.439A6.085,6.085,0,0,1,5.331-55.5a5.254,5.254,0,0,1-1.22-1.7,4.926,4.926,0,0,1-.439-2.045A5.513,5.513,0,0,1,5.16-63.236,7.952,7.952,0,0,1,9.4-65.358L14.742-66.5a2.379,2.379,0,0,0-.837-1.317,2.709,2.709,0,0,0-1.833-.594,4.025,4.025,0,0,0-1.642.3,7.152,7.152,0,0,0-1.183.65,4.951,4.951,0,0,0-.992.955L4.818-69.749a10.925,10.925,0,0,1,2.061-1.793A12.127,12.127,0,0,1,9.323-72.8a8.989,8.989,0,0,1,3.321-.573,9.989,9.989,0,0,1,3.529.594,8.189,8.189,0,0,1,2.712,1.622,7.188,7.188,0,0,1,1.74,2.386,6.939,6.939,0,0,1,.61,2.882v11.606H14.742v-2.48h-.187a7.256,7.256,0,0,1-1.187,1.447,6.531,6.531,0,0,1-1.545.976A5.216,5.216,0,0,1,9.591-53.9Zm2.48-4.964a2.488,2.488,0,0,0,1.907-.821,3.437,3.437,0,0,0,.764-2.423v-.573l-2.671.573a2.39,2.39,0,0,0-1.224.646,1.494,1.494,0,0,0-.5,1.069Q10.351-58.866,12.071-58.866Zm0,0" transform="translate(-3.672 73.375)" fill="#249ea0"/>
      </g>
    </g>
  </g>
</svg>
